<?xml version="1.0" encoding="UTF-8" standalone="no"?>
<svg
   xmlns:dc="http://purl.org/dc/elements/1.1/"
   xmlns:cc="http://creativecommons.org/ns#"
   xmlns:rdf="http://www.w3.org/1999/02/22-rdf-syntax-ns#"
   xmlns:svg="http://www.w3.org/2000/svg"
   xmlns="http://www.w3.org/2000/svg"
   xmlns:sodipodi="http://sodipodi.sourceforge.net/DTD/sodipodi-0.dtd"
   xmlns:inkscape="http://www.inkscape.org/namespaces/inkscape"
   width="169.127"
   height="169.127"
   viewBox="0 0 126.84525 126.84525"
   version="1.1"
   id="svg16"
   sodipodi:docname="frameit_logo.svg"
   inkscape:version="1.0.2 (e86c870879, 2021-01-15, custom)"
   inkscape:export-filename="C:\Users\John\Downloads\frameit_logo.png"
   inkscape:export-xdpi="2320.5601"
   inkscape:export-ydpi="2320.5601">
  <metadata
     id="metadata22">
    <rdf:RDF>
      <cc:Work
         rdf:about="">
        <dc:format>image/svg+xml</dc:format>
        <dc:type
           rdf:resource="http://purl.org/dc/dcmitype/StillImage" />
        <dc:title />
      </cc:Work>
    </rdf:RDF>
  </metadata>
  <defs
     id="defs20">
    <rect
       x="30.785662"
       y="74.696991"
       width="104.17009"
       height="34.484715"
       id="rect36" />
    <rect
       x="30.785662"
       y="74.696991"
       width="104.17009"
       height="34.484715"
       id="rect36-6" />
    <rect
       x="30.785662"
       y="74.696991"
       width="104.17009"
       height="34.484715"
       id="rect89" />
  </defs>
  <sodipodi:namedview
     pagecolor="#ffffff"
     bordercolor="#666666"
     borderopacity="1"
     objecttolerance="10"
     gridtolerance="10"
     guidetolerance="10"
     inkscape:pageopacity="1"
     inkscape:pageshadow="2"
     inkscape:window-width="1920"
     inkscape:window-height="986"
     id="namedview18"
     showgrid="false"
     inkscape:zoom="2.8284271"
     inkscape:cx="-100.07036"
     inkscape:cy="110.73563"
     inkscape:window-x="-11"
     inkscape:window-y="-11"
     inkscape:window-maximized="1"
     inkscape:current-layer="svg16"
     inkscape:document-rotation="0"
     units="px" />
  <style
     id="style2">
    .kwarcblue { fill:#182e90; }
  </style>
  <!-- pattern -->
  <!-- k -->
  <!-- w -->
  <!-- a -->
  <!-- r -->
  <!-- c -->
  <text
     xml:space="preserve"
     style="font-style:normal;font-weight:normal;font-size:30px;line-height:1.25;font-family:sans-serif;fill:#000000;fill-opacity:1;stroke:none;stroke-width:0.75"
     x="42.018753"
     y="101.08125"
     id="text26"><tspan
       sodipodi:role="line"
       id="tspan24"
       x="42.018753"
       y="101.08125"
       style="stroke-width:0.75" /></text>
  <path
     class="kwarcblue"
     d="M 26.400206,11.270352 C 40.282621,1.4316529 58.393587,-2.5759637 74.978685,1.1911959 55.680932,0.04902515 37.091261,10.268448 25.88161,25.737848 c 6.253071,-4.097788 13.523387,-6.832986 21.072947,-6.6827 13.274062,-0.140267 26.16915,7.774776 32.152949,19.65736 3.510496,7.113519 5.275717,15.539534 3.330982,23.354386 C 82.558164,53.180004 79.137425,44.303133 72.73476,38.111365 59.011913,24.064668 33.869983,22.651984 19.668432,36.668623 12.856874,50.284501 10.952031,66.475273 14.213201,81.353554 15.270339,73.39843 18.012914,65.483387 23.567875,59.542096 30.449244,51.887548 40.621703,47.298826 50.913838,47.499207 62.711896,47.569337 74.310494,53.85128 80.763024,63.78015 76.414797,59.832648 71.717514,55.995355 65.893283,54.562632 46.545664,48.972006 24.625013,61.936647 19.209674,81.213287 17.953076,86.262884 16.586775,92.033849 19.399161,96.802913 26.320422,111.30047 39.355132,122.60195 54.823254,126.88008 27.77648,123.80423 4.1803644,101.31148 0.24102978,74.169897 0.04156979,67.12651 -0.0382142,60.063086 0.24102978,53.029718 2.7143336,36.2879 12.587603,20.888632 26.400206,11.270352 Z"
     id="path4-6"
     style="fill:#182e90;stroke-width:0.999598" />
  <text
     xml:space="preserve"
     id="text34-0"
     style="font-style:normal;font-variant:normal;font-weight:normal;font-stretch:normal;font-size:24px;line-height:1.25;font-family:'Segoe UI Emoji';-inkscape-font-specification:'Segoe UI Emoji';white-space:pre;shape-inside:url(#rect36-6);fill:#182e90;fill-opacity:1;stroke:none;"
     transform="matrix(1.2823833,0,0,1.9601089,-15.74124,-86.287843)"><tspan
       x="30.785156"
       y="96.315372"><tspan
         style="font-style:normal;font-variant:normal;font-weight:normal;font-stretch:normal;font-size:22.0759px;font-family:'Franklin Gothic Medium';-inkscape-font-specification:'Franklin Gothic Medium, '">FrameIT</tspan><tspan>
</tspan></tspan></text>
</svg>
